# Blender v2.79 (sub 0) OBJ File: 'Mask.blend'
# www.blender.org
mtllib Mask.mtl
o Plane
v 0.412316 -0.000000 -0.048033
v 0.432040 0.454386 -0.048033
v 0.299488 -0.415843 -0.048033
v 0.217511 0.426213 -0.035635
v 0.414458 0.243607 -0.048033
v 0.215407 -0.473606 -0.035635
v 0.392910 -0.218947 -0.048033
v 0.217511 -0.276487 -0.035635
v 0.217511 0.250000 -0.035635
v 0.324775 0.426213 -0.042535
v 0.369705 0.311067 -0.048033
v 0.256185 -0.447519 -0.042535
v 0.376300 -0.079679 -0.048033
v 0.541410 -0.000000 -0.058055
v 0.136572 -0.000000 -0.030720
v 0.539304 0.500000 -0.058055
v 0.110246 0.454386 -0.030720
v 0.389261 0.105212 -0.048033
v 0.170117 -0.500623 -0.030720
v 0.342397 -0.380293 -0.049262
v 0.280022 -0.218947 -0.042535
v 0.110246 -0.346814 -0.030720
v 0.217511 -0.065051 -0.035635
v 0.214068 -0.343947 -0.035635
v 0.463020 -0.218947 -0.058055
v 0.324775 0.250000 -0.042535
v 0.118238 0.222828 -0.030720
v 0.217511 0.341435 -0.035635
v 0.217511 0.118120 -0.035635
v 0.557013 0.250000 -0.058055
v 0.557013 0.125000 -0.058055
v 0.548964 0.375000 -0.058055
v 0.157471 0.093862 -0.030720
v 0.129426 0.282297 -0.030720
v 0.324775 0.341435 -0.042535
v 0.379105 -0.343947 -0.055013
v 0.514320 -0.125000 -0.058055
v 0.120825 -0.396692 -0.030720
v 0.146584 -0.049916 -0.030720
v 0.311989 -0.071931 -0.042535
v 0.281993 -0.343947 -0.042535
v 0.324775 0.142399 -0.042535
v 0.000000 -0.000000 -0.026705
v -0.412316 0.000000 -0.048034
v 0.000000 0.500000 -0.026705
v -0.000000 -0.532129 -0.026705
v -0.432040 0.454386 -0.048034
v -0.299488 -0.415843 -0.048033
v -0.000000 -0.345216 -0.026705
v 0.000000 0.250000 -0.026705
v -0.217511 0.426213 -0.035635
v -0.414458 0.243607 -0.048034
v -0.215407 -0.473606 -0.035635
v -0.392910 -0.218947 -0.048034
v -0.217511 -0.276487 -0.035635
v -0.217511 0.250000 -0.035635
v -0.000000 -0.179343 -0.026705
v 0.000000 0.375000 -0.026705
v -0.324775 0.426213 -0.042535
v -0.369705 0.311067 -0.048034
v -0.256185 -0.447519 -0.042535
v -0.376300 -0.079679 -0.048034
v -0.541410 0.000000 -0.058055
v -0.000000 -0.396692 -0.026705
v -0.136572 0.000000 -0.030720
v 0.000000 0.125000 -0.026705
v -0.539304 0.500000 -0.058055
v -0.110246 0.454386 -0.030720
v -0.389261 0.105212 -0.048034
v -0.170117 -0.500623 -0.030720
v -0.342397 -0.380293 -0.049262
v -0.280022 -0.218947 -0.042535
v -0.110246 -0.346814 -0.030720
v -0.217511 -0.065051 -0.035635
v -0.214068 -0.343947 -0.035635
v -0.463020 -0.218947 -0.058055
v -0.324775 0.250000 -0.042535
v -0.118238 0.222828 -0.030720
v -0.217511 0.341435 -0.035635
v -0.217511 0.118120 -0.035635
v -0.557013 0.250000 -0.058055
v -0.557013 0.125000 -0.058055
v -0.548964 0.375000 -0.058055
v -0.157471 0.093862 -0.030720
v -0.129426 0.282297 -0.030720
v -0.324775 0.341435 -0.042535
v -0.379105 -0.343947 -0.055013
v -0.514320 -0.125000 -0.058055
v -0.120825 -0.396692 -0.030720
v -0.146584 -0.049916 -0.030720
v -0.311989 -0.071931 -0.042535
v -0.281994 -0.343947 -0.042535
v -0.324775 0.142399 -0.042535
vn 0.0994 -0.0181 0.9949
vn 0.1259 -0.0214 0.9918
vn 0.1148 -0.0479 0.9922
vn 0.1032 -0.0381 0.9939
vn 0.0749 -0.0055 0.9972
vn 0.0804 -0.0079 0.9967
vn 0.1036 -0.0296 0.9942
vn 0.0729 -0.0122 0.9973
vn 0.0384 -0.0012 0.9992
vn 0.0410 0.0007 0.9991
vn 0.0779 -0.0023 0.9969
vn 0.0718 -0.0059 0.9974
vn 0.0421 0.0067 0.9991
vn 0.0460 0.0098 0.9989
vn 0.0846 0.0047 0.9964
vn 0.0844 -0.0002 0.9964
vn 0.0705 -0.0029 0.9975
vn 0.0716 0.0048 0.9974
vn 0.0672 0.0056 0.9977
vn 0.0766 0.0080 0.9970
vn 0.0436 -0.0012 0.9990
vn 0.0417 0.0025 0.9991
vn 0.0601 0.0006 0.9982
vn 0.0576 0.0006 0.9983
vn 0.0671 -0.0034 0.9977
vn 0.0660 -0.0025 0.9978
vn 0.0618 0.0050 0.9980
vn 0.0692 -0.0105 0.9975
vn 0.0689 -0.0085 0.9976
vn 0.0744 -0.0161 0.9971
vn 0.0685 -0.0020 0.9976
vn 0.0754 -0.0148 0.9970
vn 0.0392 0.0034 0.9992
vn 0.0609 0.0052 0.9981
vn 0.0000 0.0009 1.0000
vn 0.0000 0.0015 1.0000
vn 0.0000 -0.0007 1.0000
vn 0.0274 -0.0007 0.9996
vn 0.0402 0.0028 0.9992
vn 0.0564 0.0020 0.9984
vn 0.0000 0.0022 1.0000
vn 0.0000 0.0010 1.0000
vn 0.0683 -0.0105 0.9976
vn 0.1701 -0.0736 0.9826
vn 0.1179 -0.0331 0.9925
vn 0.0817 -0.0180 0.9965
vn 0.0000 0.0005 1.0000
vn 0.0000 0.0046 1.0000
vn 0.0000 0.0056 1.0000
vn 0.0000 -0.0015 1.0000
vn 0.0669 -0.0038 0.9977
vn -0.0994 -0.0181 0.9949
vn -0.1032 -0.0381 0.9939
vn -0.1148 -0.0479 0.9922
vn -0.1259 -0.0214 0.9918
vn -0.0749 -0.0055 0.9972
vn -0.0729 -0.0122 0.9973
vn -0.1036 -0.0296 0.9942
vn -0.0804 -0.0079 0.9967
vn -0.0384 -0.0012 0.9992
vn -0.0718 -0.0059 0.9974
vn -0.0779 -0.0023 0.9969
vn -0.0410 0.0007 0.9991
vn -0.0421 0.0067 0.9991
vn -0.0844 -0.0002 0.9964
vn -0.0846 0.0047 0.9964
vn -0.0460 0.0098 0.9989
vn -0.0705 -0.0029 0.9975
vn -0.0766 0.0080 0.9970
vn -0.0672 0.0056 0.9977
vn -0.0716 0.0048 0.9974
vn -0.0436 -0.0012 0.9990
vn -0.0576 0.0006 0.9983
vn -0.0601 0.0006 0.9982
vn -0.0417 0.0025 0.9991
vn -0.0618 0.0050 0.9980
vn -0.0660 -0.0025 0.9978
vn -0.0671 -0.0034 0.9977
vn -0.0689 -0.0085 0.9976
vn -0.0692 -0.0105 0.9975
vn -0.0744 -0.0161 0.9971
vn -0.0754 -0.0148 0.9970
vn -0.0685 -0.0020 0.9976
vn -0.0609 0.0052 0.9981
vn -0.0392 0.0034 0.9992
vn -0.0274 -0.0007 0.9996
vn -0.0402 0.0028 0.9992
vn -0.0564 0.0020 0.9984
vn -0.0683 -0.0105 0.9976
vn -0.1179 -0.0331 0.9925
vn -0.1701 -0.0736 0.9826
vn -0.0817 -0.0180 0.9965
vn -0.0669 -0.0038 0.9977
usemtl None
s 1
f 41//1 12//2 3//3 20//4
f 40//5 21//6 7//7 13//8
f 39//9 22//10 8//11 23//12
f 38//13 19//14 6//15 24//16
f 35//17 26//18 5//19 11//20
f 34//21 27//22 9//23 28//24
f 5//19 18//25 31//26 30//27
f 18//25 1//28 14//29 31//26
f 2//30 11//20 32//31 16//32
f 11//20 5//19 30//27 32//31
f 27//22 33//33 29//34 9//23
f 50//35 66//36 33//33 27//22
f 66//36 43//37 15//38 33//33
f 17//39 34//21 28//24 4//40
f 45//41 58//42 34//21 17//39
f 58//42 50//35 27//22 34//21
f 10//43 35//17 11//20 2//30
f 4//40 28//24 35//17 10//43
f 28//24 9//23 26//18 35//17
f 7//7 20//4 36//44 25//45
f 1//28 13//8 37//46 14//29
f 13//8 7//7 25//45 37//46
f 22//10 38//13 24//16 8//11
f 49//47 64//48 38//13 22//10
f 64//48 46//49 19//14 38//13
f 43//37 57//50 39//9 15//38
f 57//50 49//47 22//10 39//9
f 23//12 8//11 21//6 40//5
f 21//6 41//1 20//4 7//7
f 8//11 24//16 41//1 21//6
f 24//16 6//15 12//2 41//1
f 26//18 42//51 18//25 5//19
f 9//23 29//34 42//51 26//18
f 92//52 71//53 48//54 61//55
f 91//56 62//57 54//58 72//59
f 90//60 74//61 55//62 73//63
f 89//64 75//65 53//66 70//67
f 86//68 60//69 52//70 77//71
f 85//72 79//73 56//74 78//75
f 52//70 81//76 82//77 69//78
f 69//78 82//77 63//79 44//80
f 47//81 67//82 83//83 60//69
f 60//69 83//83 81//76 52//70
f 78//75 56//74 80//84 84//85
f 50//35 78//75 84//85 66//36
f 66//36 84//85 65//86 43//37
f 68//87 51//88 79//73 85//72
f 45//41 68//87 85//72 58//42
f 58//42 85//72 78//75 50//35
f 59//89 47//81 60//69 86//68
f 51//88 59//89 86//68 79//73
f 79//73 86//68 77//71 56//74
f 54//58 76//90 87//91 71//53
f 44//80 63//79 88//92 62//57
f 62//57 88//92 76//90 54//58
f 73//63 55//62 75//65 89//64
f 49//47 73//63 89//64 64//48
f 64//48 89//64 70//67 46//49
f 43//37 65//86 90//60 57//50
f 57//50 90//60 73//63 49//47
f 74//61 91//56 72//59 55//62
f 72//59 54//58 71//53 92//52
f 55//62 72//59 92//52 75//65
f 75//65 92//52 61//55 53//66
f 77//71 52//70 69//78 93//93
f 56//74 77//71 93//93 80//84
